<?xml version="1.0" standalone="no"?><!DOCTYPE svg PUBLIC "-//W3C//DTD SVG 1.1//EN" "http://www.w3.org/Graphics/SVG/1.1/DTD/svg11.dtd"><svg t="1644629045901" class="icon" viewBox="0 0 1024 1024" version="1.1" xmlns="http://www.w3.org/2000/svg" p-id="2458" width="32" height="32" xmlns:xlink="http://www.w3.org/1999/xlink"><defs><style type="text/css"></style></defs><path d="M292.864 613.376m-162.816 0a162.816 162.816 0 1 0 325.632 0 162.816 162.816 0 1 0-325.632 0Z" fill="#72C69C" p-id="2459"></path><path d="M292.864 791.552c-98.304 0-178.176-79.872-178.176-178.176S194.56 436.224 292.864 436.224 471.04 516.096 471.04 613.376s-79.872 178.176-178.176 178.176z m0-324.608c-80.896 0-147.456 65.536-147.456 147.456s65.536 147.456 147.456 147.456S440.32 695.296 440.32 613.376s-66.56-146.432-147.456-146.432z" fill="#251C4E" p-id="2460"></path><path d="M731.136 613.376m-162.816 0a162.816 162.816 0 1 0 325.632 0 162.816 162.816 0 1 0-325.632 0Z" fill="#FF6660" p-id="2461"></path><path d="M731.136 791.552c-98.304 0-178.176-79.872-178.176-178.176s79.872-178.176 178.176-178.176 178.176 79.872 178.176 178.176S829.44 791.552 731.136 791.552z m0-324.608C650.24 466.944 583.68 532.48 583.68 613.376s65.536 147.456 147.456 147.456 147.456-65.536 147.456-147.456-66.56-146.432-147.456-146.432z" fill="#251C4E" p-id="2462"></path><path d="M555.008 628.736c-6.144 0-12.288-4.096-14.336-10.24-5.12-15.36-18.432-21.504-29.696-21.504-11.264 0-24.576 5.12-29.696 21.504-3.072 8.192-11.264 12.288-19.456 10.24-8.192-3.072-12.288-11.264-10.24-19.456 8.192-25.6 31.744-43.008 58.368-43.008s50.176 16.384 58.368 41.984c3.072 8.192-2.048 16.384-10.24 19.456 0 1.024-2.048 1.024-3.072 1.024zM935.936 618.496c-5.12 0-10.24-3.072-13.312-8.192-2.048-4.096-5.12-4.096-7.168-4.096-1.024 0-5.12 0-7.168 4.096-4.096 7.168-13.312 10.24-20.48 6.144s-10.24-13.312-6.144-20.48c7.168-12.288 19.456-20.48 33.792-20.48s27.648 8.192 33.792 20.48c4.096 7.168 1.024 16.384-6.144 20.48-2.048 1.024-4.096 2.048-7.168 2.048z" fill="#251C4E" p-id="2463"></path><path d="M935.936 618.496c-6.144 0-12.288-4.096-14.336-10.24L815.104 292.864c-3.072-9.216-8.192-17.408-15.36-22.528-14.336-10.24-34.816-10.24-49.152 1.024l-15.36 12.288c-6.144 5.12-16.384 4.096-21.504-2.048-5.12-6.144-4.096-16.384 2.048-21.504l15.36-12.288c24.576-20.48 60.416-21.504 87.04-2.048 13.312 9.216 22.528 22.528 26.624 37.888l105.472 314.368c3.072 8.192-2.048 16.384-9.216 19.456-2.048 0-3.072 1.024-5.12 1.024zM129.024 618.496c-5.12 0-10.24-3.072-13.312-8.192-2.048-4.096-5.12-4.096-7.168-4.096-1.024 0-5.12 0-7.168 4.096-4.096 7.168-13.312 10.24-20.48 6.144s-10.24-13.312-6.144-20.48c7.168-12.288 19.456-20.48 33.792-20.48s27.648 8.192 33.792 20.48c4.096 7.168 1.024 16.384-6.144 20.48-2.048 1.024-5.12 2.048-7.168 2.048z" fill="#251C4E" p-id="2464"></path><path d="M88.064 618.496c-2.048 0-3.072 0-5.12-1.024-8.192-3.072-12.288-11.264-9.216-19.456l106.496-314.368c4.096-14.336 13.312-27.648 26.624-37.888 25.6-18.432 61.44-18.432 87.04 2.048l15.36 12.288c6.144 5.12 7.168 15.36 2.048 21.504-5.12 6.144-15.36 7.168-21.504 2.048l-15.36-12.288c-14.336-11.264-34.816-12.288-49.152-1.024-7.168 5.12-12.288 13.312-15.36 21.504L102.4 608.256c-2.048 6.144-8.192 10.24-14.336 10.24z" fill="#251C4E" p-id="2465"></path><path d="M889.856 596.992c-3.072 0-6.144-1.024-8.192-3.072L691.2 466.944c-7.168-5.12-9.216-14.336-4.096-21.504s14.336-9.216 21.504-4.096l191.488 126.976c7.168 5.12 9.216 14.336 4.096 21.504-4.096 5.12-9.216 7.168-14.336 7.168z" fill="#251C4E" p-id="2466"></path><path d="M891.904 649.216c-3.072 0-6.144-1.024-8.192-3.072L643.072 484.352c-7.168-5.12-9.216-14.336-4.096-21.504 5.12-7.168 14.336-9.216 21.504-4.096L901.12 621.568c7.168 5.12 9.216 14.336 4.096 21.504-3.072 4.096-8.192 6.144-13.312 6.144z" fill="#251C4E" p-id="2467"></path></svg>